<svg width="156" height="54" viewBox="0 0 156 54" fill="none" xmlns="http://www.w3.org/2000/svg">
<path d="M36.294 54V0C32.9706 3.95648 27.3691 11.7735 27.3691 24.2233C27.3691 36.673 32.9706 50.0435 36.294 54Z" fill="url(#paint0_radial_6122_1893)"/>
<path d="M36.2941 14.1282C32.6158 9.24136 26.7602 6.07617 20.1709 6.07617C9.03037 6.07617 0 15.1065 0 26.247C0 37.3875 9.03037 46.4179 20.1709 46.4179C26.7602 46.4179 32.611 43.2575 36.2941 38.3659V14.1282Z" fill="#00ACEE"/>
<path d="M36.2949 14.128C36.0839 13.845 35.7434 13.423 35.5708 13.2168C35.0385 12.5981 34.4006 11.9027 33.4271 11.0395C32.4584 10.1811 31.0005 9.15958 29.8447 8.53613C28.0223 12.507 26.7227 17.3459 26.7227 23.3646C26.7227 30.3615 28.4779 37.6415 30.7415 43.4347C31.4321 42.9887 32.0459 42.5619 32.6981 42.0583C33.2305 41.6459 33.782 41.1663 34.3239 40.6244C35.1488 39.8091 35.8585 38.9603 36.2997 38.3656V14.128H36.2949Z" fill="url(#paint1_radial_6122_1893)"/>
<path d="M44.8105 32.7165L48.1819 29.1005C49.026 29.8583 50.0187 30.4529 51.1121 30.8462C52.2056 31.2394 53.3709 31.4217 54.5411 31.3833C56.5505 31.3833 57.9461 30.7215 57.9461 29.5897C57.9461 28.5826 56.7088 27.94 54.3253 27.7386C49.5919 27.3309 45.5059 26.2039 45.5059 21.1732H45.4963C45.4915 16.8954 49.9851 15.0442 54.5651 15.0442C57.4905 14.9196 60.3631 15.7684 62.6795 17.4469L59.6438 21.0629C58.1667 20.0846 56.3779 19.5954 54.5651 19.6769C53.0832 19.6769 51.6253 20.1133 51.6253 21.1828C51.6253 22.5688 53.0832 22.7702 55.2173 22.9764C59.5239 23.408 64.0079 25.029 64.0079 29.6856C64.0079 34.2847 59.3656 36.2462 54.5027 36.2798H54.2581C52.4981 36.4045 50.7285 36.1503 49.0883 35.5316C47.4482 34.913 45.9807 33.949 44.8105 32.7165ZM80.8553 35.7235V28.0599H73.0574V35.7235H66.9285V15.4807H73.0574V23.1682H80.8553V15.4807H86.9267V35.7235H80.8553ZM137.944 35.6947V15.4471H154.854V20.2476H143.986V23.1442H154.24V27.7961H143.986V30.8606H155.285V35.6899L137.944 35.6947ZM115.994 35.6947V15.4471H126.516C132.338 15.4471 135.215 18.8616 135.215 22.8229C135.215 26.9569 132.304 30.17 126.516 30.2275H122.118V35.6947H115.994ZM122.127 25.403H126.525C126.875 25.4174 127.225 25.3599 127.547 25.24C127.873 25.1201 128.165 24.9331 128.41 24.6981C128.654 24.4631 128.841 24.1801 128.957 23.8732C129.076 23.5663 129.124 23.2402 129.096 22.914C129.12 22.5879 129.072 22.257 128.952 21.9453C128.832 21.6336 128.65 21.3506 128.405 21.1109C128.16 20.8711 127.873 20.684 127.547 20.5545C127.22 20.4251 126.875 20.3627 126.52 20.3675H122.123L122.127 25.403ZM107.692 35.6947L106.268 32.3712H96.5853L95.161 35.6947H88.6532L98.3837 15.4471H104.575L114.267 35.6947H107.692ZM98.6523 27.5707H104.196L101.448 21.1204L98.6523 27.5707Z" fill="#231F20"/>
<defs>
<radialGradient id="paint0_radial_6122_1893" cx="0" cy="0" r="1" gradientUnits="userSpaceOnUse" gradientTransform="translate(40.9284 26.9935) rotate(180) scale(11.4202 38.095)">
<stop/>
<stop offset="0.0205" stop-color="#0D0E0E"/>
<stop offset="0.1077" stop-color="#171818" stop-opacity="0.911"/>
<stop offset="0.2581" stop-color="#333434" stop-opacity="0.7574"/>
<stop offset="0.4537" stop-color="#616161" stop-opacity="0.5577"/>
<stop offset="0.6869" stop-color="#A0A0A0" stop-opacity="0.3197"/>
<stop offset="0.9491" stop-color="#EFEFEF" stop-opacity="0.0519"/>
<stop offset="1" stop-color="white" stop-opacity="0"/>
</radialGradient>
<radialGradient id="paint1_radial_6122_1893" cx="0" cy="0" r="1" gradientUnits="userSpaceOnUse" gradientTransform="translate(41.2497 26.2336) rotate(180) scale(12.3379 38.7333)">
<stop/>
<stop offset="0.0205" stop-color="#0D0E0E"/>
<stop offset="0.1332" stop-color="#0E1418" stop-opacity="0.8849"/>
<stop offset="0.3276" stop-color="#102534" stop-opacity="0.6864"/>
<stop offset="0.5803" stop-color="#144062" stop-opacity="0.4285"/>
<stop offset="0.8783" stop-color="#1965A0" stop-opacity="0.1242"/>
<stop offset="1" stop-color="#1B75BB" stop-opacity="0"/>
</radialGradient>
</defs>
</svg>
